<?xml version="1.0" standalone="no"?>
<!DOCTYPE svg PUBLIC "-//W3C//DTD SVG 20010904//EN"
 "http://www.w3.org/TR/2001/REC-SVG-20010904/DTD/svg10.dtd">
<svg version="1.0" xmlns="http://www.w3.org/2000/svg"
 width="262.000000pt" height="262.000000pt" viewBox="0 0 262.000000 262.000000"
 preserveAspectRatio="xMidYMid meet">
<metadata>
Created by potrace 1.11, written by Peter Selinger 2001-2013
</metadata>
<g transform="translate(0.000000,262.000000) scale(0.100000,-0.100000)"
fill="#000000" stroke="none">
<path d="M1100 2612 c0 -5 6 -29 14 -55 12 -39 12 -45 0 -40 -18 7 -17 -1 2
-56 11 -33 12 -46 3 -51 -16 -11 -2 -30 23 -30 17 0 20 -4 15 -30 -8 -35 17
-44 28 -10 6 18 12 20 42 14 l35 -7 -17 27 c-16 25 -16 28 -1 45 24 26 20 33
-14 26 -24 -5 -30 -3 -30 10 0 8 -7 32 -15 53 -12 28 -18 33 -25 23 -6 -11
-12 -1 -23 34 -7 27 -19 51 -25 53 -7 2 -12 0 -12 -6z m37 -134 c-3 -8 -6 -5
-6 6 -1 11 2 17 5 13 3 -3 4 -12 1 -19z m21 -49 c-3 -8 -7 -3 -11 10 -4 17 -3
21 5 13 5 -5 8 -16 6 -23z"/>
<path d="M1485 2608 c-3 -7 -11 -31 -19 -53 -8 -22 -15 -34 -15 -27 -2 28 -21
9 -36 -39 -12 -37 -21 -49 -32 -45 -8 3 -21 6 -29 6 -8 0 -14 7 -14 15 0 8 -7
15 -15 15 -8 0 -15 -9 -15 -20 0 -13 7 -20 19 -20 31 0 46 -26 32 -56 -16 -35
-15 -36 18 -29 17 3 32 2 36 -4 4 -7 -4 -11 -18 -11 -16 0 -26 -7 -30 -20 -3
-11 -13 -20 -22 -20 -16 0 -17 8 -12 59 4 46 2 61 -9 65 -11 4 -14 -7 -14 -51
0 -74 -8 -64 -10 12 -2 71 -8 95 -21 95 -7 0 -8 -33 -5 -89 5 -82 4 -89 -14
-94 -14 -3 -20 1 -22 17 -2 14 -11 21 -25 22 -13 1 -23 -3 -23 -8 0 -14 -27
-38 -34 -31 -3 4 -6 0 -6 -8 -1 -8 -8 -2 -16 14 -16 29 -40 38 -30 10 6 -15 5
-15 -13 1 -18 16 -19 20 -5 40 19 29 8 39 -22 19 -23 -15 -24 -14 -61 46 -21
33 -41 61 -45 61 -14 0 -9 -22 13 -56 11 -19 18 -34 15 -34 -3 0 -17 20 -32
45 -26 45 -44 57 -44 30 0 -8 3 -15 8 -15 4 0 12 -11 19 -25 6 -14 7 -25 2
-25 -15 0 -10 -23 10 -49 10 -14 17 -31 14 -38 -3 -9 4 -13 21 -13 22 0 26 -4
26 -30 0 -16 5 -30 10 -30 6 0 10 5 10 11 0 5 5 7 11 3 8 -4 7 -9 -2 -15 -10
-6 -7 -16 14 -45 14 -21 23 -41 19 -44 -11 -8 -12 -42 -1 -61 6 -11 5 -19 -2
-21 -6 -2 0 -16 13 -33 12 -16 17 -26 10 -21 -18 11 -15 -14 5 -36 9 -10 11
-18 5 -18 -6 0 -9 -6 -6 -14 8 -21 -34 -45 -81 -47 -47 -3 -69 7 -61 27 4 9
-2 14 -15 14 -11 0 -22 -7 -25 -15 -10 -25 -24 -17 -24 14 0 17 -5 33 -10 36
-16 10 8 45 30 45 11 0 20 -7 20 -15 0 -8 -5 -15 -12 -15 -6 0 -3 -9 7 -20 12
-13 31 -20 56 -20 49 0 66 25 67 100 1 64 -24 112 -66 128 -34 14 -152 18
-214 8 -41 -7 -48 -12 -53 -37 -4 -15 -20 -45 -36 -66 -23 -29 -30 -46 -27
-70 3 -22 0 -33 -9 -33 -7 0 -13 -7 -13 -15 0 -8 6 -15 13 -15 8 0 26 -14 41
-30 22 -25 24 -31 11 -36 -17 -7 -20 -55 -5 -70 7 -7 3 -14 -13 -23 -22 -12
-47 -75 -47 -121 0 -10 -16 -36 -35 -57 -39 -42 -52 -72 -37 -82 7 -4 6 -15
-3 -31 -8 -14 -14 -19 -15 -12 0 20 -44 10 -48 -10 -2 -9 9 -27 23 -40 26 -22
27 -25 20 -98 -3 -41 -11 -95 -17 -119 l-11 -44 -14 27 c-15 28 -24 31 -51 16
-9 -5 -29 -14 -45 -20 -30 -10 -43 -32 -33 -53 4 -6 15 -28 26 -47 l18 -35
-51 -23 c-61 -27 -53 -46 17 -41 25 3 46 1 46 -3 0 -4 19 -13 43 -19 23 -6 36
-14 30 -16 -18 -7 -16 -30 3 -37 20 -8 10 -21 -14 -21 -14 0 -17 -9 -15 -55 6
-147 18 -194 55 -210 13 -6 31 -16 42 -22 15 -11 19 -10 23 0 3 8 12 4 25 -14
30 -38 63 -47 94 -27 23 14 25 22 21 62 -2 25 -10 60 -18 78 -19 46 -6 50 41
12 54 -43 60 -71 24 -102 -30 -26 -32 -42 -17 -152 l8 -59 65 -39 c36 -21 102
-56 148 -77 50 -24 82 -45 82 -55 0 -27 38 -55 74 -55 28 0 35 -4 40 -25 4
-14 11 -25 17 -25 18 0 78 -71 84 -101 9 -40 32 -37 50 7 13 31 75 102 75 86
0 -4 7 4 16 16 8 12 12 27 9 32 -4 6 11 10 38 10 46 0 77 21 77 52 0 10 22 24
58 39 31 12 82 36 112 53 30 16 72 38 93 49 37 19 47 38 46 87 0 14 3 46 6 71
7 42 5 49 -25 82 -37 42 -34 50 30 101 50 39 64 30 37 -24 -35 -69 -30 -117
14 -141 17 -9 28 -6 60 15 21 15 39 32 39 39 0 7 7 22 15 33 14 18 14 17 4 -9
-7 -15 -10 -30 -6 -33 11 -11 47 7 47 24 0 13 2 14 9 4 18 -29 61 52 60 113 0
11 2 50 4 87 l5 68 -26 0 c-25 1 -25 2 -9 14 20 15 22 32 5 39 -7 3 7 8 30 12
24 4 46 14 49 22 3 8 10 10 17 5 15 -12 86 -3 86 12 0 6 -23 20 -50 31 l-50
21 31 47 c32 49 33 73 2 83 -10 3 -30 12 -46 20 -48 26 -89 -4 -66 -48 7 -13
7 -18 1 -14 -16 10 -41 94 -51 176 -9 71 -8 76 14 96 30 28 41 64 24 75 -22
14 -39 10 -39 -8 -1 -17 -1 -17 -11 0 -6 9 -7 27 -4 38 7 21 -10 55 -49 97
-11 13 -26 50 -33 84 -13 62 -35 98 -60 98 -12 0 -12 3 1 16 20 20 20 48 1 64
-14 12 -13 16 6 36 12 13 30 26 41 30 20 6 25 34 5 34 -9 0 -12 11 -9 33 3 25
-3 41 -21 63 -14 17 -33 49 -42 71 -18 46 -17 45 -162 45 -107 -1 -148 -17
-168 -66 -28 -66 -8 -175 33 -177 40 -3 68 4 82 18 11 12 12 17 3 20 -23 8
-14 33 11 33 27 0 42 -26 25 -46 -6 -8 -9 -23 -6 -34 7 -25 -13 -38 -25 -16
-13 23 -48 21 -48 -4 0 -17 -7 -20 -45 -20 -63 0 -93 16 -91 49 0 14 7 33 15
41 9 9 10 15 3 18 -8 2 -6 11 4 27 9 13 13 29 9 35 -4 6 -1 18 6 26 8 9 9 18
3 22 -16 12 -9 50 14 81 12 17 22 35 22 41 0 5 5 10 10 10 5 0 9 3 9 8 -4 25
3 42 19 42 20 1 71 92 53 98 -12 4 3 41 21 53 6 4 8 15 6 25 -3 14 -14 4 -46
-43 -45 -66 -49 -78 -29 -86 7 -3 5 -6 -5 -6 -26 -1 -22 25 12 74 17 24 30 48
30 54 0 23 -17 9 -48 -40 -37 -56 -55 -67 -77 -49 -19 16 -29 8 -21 -17 9 -28
5 -38 -14 -35 -12 2 -20 -6 -24 -23 -6 -23 -8 -24 -22 -10 -8 8 -20 15 -25 15
-5 0 -9 5 -9 11 0 6 7 8 16 5 13 -5 14 -1 9 24 -6 26 -3 30 20 36 17 4 24 11
21 21 -3 7 1 33 9 56 18 52 19 60 1 54 -12 -5 -12 1 0 40 8 26 14 50 14 55 0
13 -20 9 -25 -4z m-21 -160 c-9 -18 -19 -27 -21 -21 -3 7 3 20 11 29 9 8 16
23 17 32 0 9 3 12 5 5 3 -6 -3 -27 -12 -45z m-469 -106 c-3 -3 -11 0 -18 7 -9
10 -8 11 6 5 10 -3 15 -9 12 -12z m108 -62 c15 0 18 -3 9 -8 -17 -11 -73 -2
-66 10 3 5 13 7 21 4 8 -3 24 -6 36 -6z m457 1 c0 -10 -69 -25 -77 -17 -3 2
-3 8 0 13 7 11 77 15 77 4z m-376 -539 c-6 -9 -24 -21 -41 -27 -53 -18 -98
-60 -112 -104 l-12 -41 -54 0 c-78 0 -91 7 -59 33 15 11 33 35 40 54 9 20 21
33 32 33 10 0 27 7 38 15 10 8 36 15 56 15 27 0 42 7 57 26 12 15 21 34 21 44
0 31 15 31 29 0 11 -23 12 -36 5 -48z m266 53 c0 -7 12 -27 26 -44 19 -23 34
-31 58 -31 18 0 41 -7 52 -15 10 -8 29 -15 41 -15 14 0 24 -9 32 -30 5 -17 24
-43 42 -59 l31 -29 -77 1 -78 2 -13 45 c-14 46 -42 70 -108 94 -42 16 -52 37
-35 74 13 30 29 34 29 7z m-611 -231 c2 -2 -2 -11 -9 -19 -17 -20 5 -65 32
-65 16 0 18 -11 18 -127 0 -123 -1 -127 -17 -103 -32 45 -92 174 -84 180 4 3
10 17 13 33 4 21 1 27 -13 27 -14 0 -19 7 -19 29 0 52 9 63 44 55 17 -3 33 -8
35 -10z m1009 -36 c3 -43 1 -46 -17 -41 -16 4 -21 1 -21 -16 0 -12 5 -29 11
-39 9 -14 4 -33 -25 -92 -21 -41 -45 -83 -54 -92 -16 -16 -17 -10 -14 112 2
98 6 128 16 124 7 -3 20 4 30 15 17 19 17 22 3 45 -16 24 -16 25 11 29 52 8
57 4 60 -45z m-1357 -381 c-10 -9 -11 -8 -5 6 3 10 9 15 12 12 3 -3 0 -11 -7
-18z m174 -347 c23 -24 24 -28 10 -34 -12 -4 -19 0 -22 14 -7 25 -22 26 -39 3
-12 -17 -13 -17 -14 3 0 12 3 42 6 68 l7 48 13 -37 c7 -21 24 -50 39 -65z
m215 53 c0 -35 -3 -44 -10 -33 -16 25 -11 80 7 80 2 0 3 -21 3 -47z m870 14
c0 -12 -5 -29 -10 -37 -7 -11 -10 -3 -10 28 0 26 4 41 10 37 6 -3 10 -16 10
-28z m254 -56 l6 -54 -21 19 c-20 18 -21 18 -30 1 -6 -10 -14 -15 -19 -12 -5
3 2 22 15 42 14 20 25 45 25 56 0 42 18 1 24 -52z m-1224 37 c0 -4 7 -8 15 -8
9 0 24 -14 33 -30 11 -21 23 -29 35 -26 15 4 17 -6 17 -104 l0 -108 68 -23
c79 -26 238 -103 304 -148 l46 -31 36 21 c40 23 50 10 11 -15 -37 -25 -69 -20
-104 16 -27 28 -34 31 -51 20 -16 -10 -27 -9 -59 4 -21 8 -45 14 -53 12 -8 -2
-65 24 -126 57 -86 46 -110 63 -105 75 4 8 8 52 8 98 l0 83 -58 55 c-31 31
-57 58 -57 59 0 2 9 3 20 2 11 -1 20 -5 20 -9z m1080 -5 c0 -5 -23 -28 -52
-53 -49 -44 -51 -48 -59 -115 -6 -48 -5 -79 3 -102 7 -18 10 -34 7 -36 -29
-24 -211 -111 -236 -113 -18 -1 -47 -9 -64 -18 -29 -15 -33 -15 -44 1 -7 9
-18 13 -26 9 -8 -4 -3 2 11 13 14 11 28 21 32 21 3 0 39 15 80 34 40 19 106
44 146 57 l72 23 0 108 c0 91 2 107 15 102 9 -4 17 1 21 12 13 38 94 86 94 57z
m-1334 -40 c-10 -10 -19 5 -10 18 6 11 8 11 12 0 2 -7 1 -15 -2 -18z m1561 -5
c-3 -7 -5 -2 -5 12 0 14 2 19 5 13 2 -7 2 -19 0 -25z m-1499 -153 c-3 -3 -9 2
-12 12 -6 14 -5 15 5 6 7 -7 10 -15 7 -18z m92 -15 c0 -5 -5 -10 -11 -10 -5 0
-7 5 -4 10 3 6 8 10 11 10 2 0 4 -4 4 -10z"/>
</g>
</svg>
